<?xml version="1.0" encoding="UTF-8"?>
<svg width="57px" height="60px" viewBox="0 0 57 60" version="1.1" xmlns="http://www.w3.org/2000/svg" xmlns:xlink="http://www.w3.org/1999/xlink">
    <!-- Generator: Sketch 49.3 (51167) - http://www.bohemiancoding.com/sketch -->
    <title>001-smartphone copy</title>
    <desc>Created with Sketch.</desc>
    <defs></defs>
    <g id="Page-1" stroke="none" stroke-width="1" fill="none" fill-rule="evenodd">
        <g id="WhatWeDo-Compliance" transform="translate(-402.000000, -4482.000000)" fill="#2584C4">
            <g id="Products" transform="translate(279.000000, 4217.000000)">
                <g id="001-smartphone" transform="translate(123.000000, 265.000000)">
                    <g>
                        <path d="M39.8987609,48.99875 C37.7116957,48.99875 35.9347826,50.79625 35.9347826,52.9975 C35.9347826,55.205 37.7116957,57.0025 39.8987609,57.0025 C42.0870652,57.0025 43.8627391,55.205 43.8627391,52.9975 C43.8627391,50.79625 42.0870652,48.99875 39.8987609,48.99875 Z M39.8987609,55 C38.8046087,55 37.9198696,54.10125 37.9198696,52.9975 C37.9198696,51.9 38.8046087,51.00125 39.8987609,51.00125 C40.992913,51.00125 41.8838478,51.9 41.8838478,52.9975 C41.8838478,54.10125 40.992913,55 39.8987609,55 Z" id="Fill-1"></path>
                        <path d="M35.9347826,5 L39.8987609,5 C40.4464565,5 40.8913043,4.55125 40.8913043,3.99875 C40.8913043,3.4475 40.4464565,2.9975 39.8987609,2.9975 L35.9347826,2.9975 C35.3883261,2.9975 34.9422391,3.4475 34.9422391,3.99875 C34.9422391,4.55125 35.3883261,5 35.9347826,5 Z" id="Fill-2"></path>
                        <path d="M42.8763913,5 L43.8627391,5 C44.4104348,5 44.8552826,4.55125 44.8552826,3.99875 C44.8552826,3.4475 44.4104348,2.9975 43.8627391,2.9975 L42.8763913,2.9975 C42.3286957,2.9975 41.8838478,3.4475 41.8838478,3.99875 C41.8838478,4.55125 42.3286957,5 42.8763913,5 Z" id="Fill-3"></path>
                        <path d="M52.3867174,0 L27.4157609,0 C25.0056522,0 23.0503043,1.9775 23.0503043,4.40375 L23.0503043,13.94 C17.841,15.9575 14.1236087,21.045 14.1236087,27.0025 C14.1236087,30.25875 15.2425435,33.2525 17.1012391,35.635 L0.561326087,51.27 C0.159847826,51.65 0.140021739,52.28 0.513,52.685 C0.71126087,52.895 0.972717391,52.9975 1.23913043,52.9975 C1.48076087,52.9975 1.72858696,52.91 1.91693478,52.73 L18.4370217,37.11375 C19.7529783,38.38375 21.3167609,39.39 23.0503043,40.05875 L23.0503043,55.59625 C23.0503043,58.0225 25.0056522,60 27.4157609,60 L52.3817609,60 C54.7931087,60 56.753413,58.0225 56.753413,55.59625 L56.753413,4.40375 C56.753413,1.9775 54.7931087,0 52.3867174,0 Z M27.4157609,2.0025 L52.3817609,2.0025 C53.6989565,2.0025 54.7683261,3.08125 54.7683261,4.40375 L54.7683261,6.00125 L25.0291957,6.00125 L25.0291957,4.40375 C25.0291957,3.08125 26.0985652,2.0025 27.4157609,2.0025 Z M16.1086957,27.0025 C16.1086957,21.66 19.5844565,17.12875 24.3712174,15.57625 C24.5310652,15.5275 24.6859565,15.48875 24.8458043,15.44375 C25.0291957,15.39 25.2138261,15.34125 25.3972174,15.2975 C25.5570652,15.26375 25.7218696,15.235 25.8817174,15.2 C26.0948478,15.16125 26.3067391,15.13125 26.5198696,15.1025 C26.6561739,15.0875 26.7912391,15.06875 26.9263043,15.05375 C27.2806957,15.025 27.6388043,15 28.0068261,15 C34.5655435,15 39.8987609,20.38125 39.8987609,27.0025 C39.8987609,33.61875 34.5655435,38.99875 28.0068261,38.99875 C27.6388043,38.99875 27.2806957,38.98 26.9263043,38.945 C26.7912391,38.93125 26.6561739,38.91625 26.5198696,38.89625 C26.3067391,38.8725 26.0948478,38.8375 25.8817174,38.79875 C25.7218696,38.77 25.5620217,38.735 25.3972174,38.70125 C25.2138261,38.6575 25.0291957,38.60875 24.8458043,38.555 C24.6859565,38.51125 24.5310652,38.47125 24.3712174,38.4225 C19.5844565,36.87 16.1086957,32.33875 16.1086957,27.0025 Z M26.3166522,40.88375 C26.3897609,40.89375 26.4616304,40.9125 26.5297826,40.9175 C27.0142826,40.97125 27.5074565,41.00125 28.0068261,41.00125 C35.6584565,41.00125 41.8838478,34.72125 41.8838478,27.0025 C41.8838478,19.2825 35.6584565,12.9975 28.0068261,12.9975 C27.5074565,12.9975 27.0142826,13.0275 26.5297826,13.08125 C26.4616304,13.09125 26.3897609,13.105 26.3166522,13.115 C25.9003043,13.16375 25.4839565,13.2325 25.0775217,13.32 C25.0638913,13.325 25.0490217,13.325 25.0291957,13.325 L25.0291957,7.9975 L54.7683261,7.9975 L54.7683261,46.00125 L25.0291957,46.00125 L25.0291957,40.67375 C25.0490217,40.67375 25.0638913,40.67875 25.0775217,40.67875 C25.4839565,40.77125 25.9003043,40.835 26.3166522,40.88375 Z M52.3867174,57.9975 L27.4157609,57.9975 C26.0985652,57.9975 25.0291957,56.91875 25.0291957,55.59625 L25.0291957,47.9975 L54.7683261,47.9975 L54.7683261,55.59625 C54.7683261,56.91875 53.6989565,57.9975 52.3867174,57.9975 Z" id="Fill-5"></path>
                    </g>
                </g>
            </g>
        </g>
    </g>
</svg>