<svg xmlns="http://www.w3.org/2000/svg" width="387" height="295" viewBox="0 0 387 295">
    <g fill="#FE4310" fill-rule="evenodd">
        <path d="M339.441.559H47.281C21.199.559 0 21.758 0 47.84v199.68c0 26.078 21.199 47.281 47.281 47.281h292.078c26.082 0 47.282-21.203 47.282-47.281V47.919c.078-26.079-21.121-47.36-47.2-47.36zm25.68 246.961c0 14.16-11.519 25.68-25.68 25.68H47.281c-14.16 0-25.679-11.52-25.679-25.68V47.919c0-14.161 11.519-25.68 25.679-25.68h292.078c14.161 0 25.68 11.519 25.68 25.68V247.52h.082z"/>
        <path d="M243.84 145.2l94.558-84.801c4.403-4 4.801-10.801.801-15.277-4-4.403-10.801-4.801-15.277-.801L193.52 161.36l-25.442-22.719c-.078-.082-.156-.16-.156-.242a16.307 16.307 0 0 0-1.762-1.519L62.641 44.239a10.788 10.788 0 0 0-15.282.883c-4 4.476-3.597 11.277.879 15.277l95.684 85.52-95.281 89.203c-4.321 4.078-4.563 10.879-.481 15.277 2.16 2.242 5.039 3.441 7.918 3.441 2.641 0 5.281-.96 7.363-2.878l96.719-90.481 26.238 23.438a10.809 10.809 0 0 0 7.204 2.722c2.558 0 5.199-.961 7.199-2.801l26.961-24.16 96.16 91.36c2.078 2 4.797 2.961 7.437 2.961 2.879 0 5.68-1.121 7.84-3.36 4.082-4.32 3.922-11.203-.398-15.281L243.84 145.2z"/>
    </g>
</svg>
