<?xml version="1.0" encoding="utf-8"?>
<!-- Generator: Adobe Illustrator 19.1.0, SVG Export Plug-In . SVG Version: 6.00 Build 0)  -->
<svg version="1.1" id="Layer_1" xmlns="http://www.w3.org/2000/svg" xmlns:xlink="http://www.w3.org/1999/xlink" x="0px" y="0px"
	 viewBox="0 0 80 86" style="enable-background:new 0 0 80 86;" xml:space="preserve">
<style type="text/css">
	.st0{fill:#2784C4;}
</style>
<g id="Page-1">
	<g id="WhatWeDo-Workplace-Modernisation" transform="translate(-777.000000, -4897.000000)">
		<g id="Group-14" transform="translate(280.000000, 4876.000000)">
			<g id="_x30_02-phone-call-copy-3" transform="translate(497.000000, 21.000000)">
				<g id="_x30_02-phone-call">
					<path id="Fill-1" class="st0" d="M52.8,48.3c-0.9-0.9-2-1.4-3.1-1.4c-1.1,0-2.2,0.5-3.2,1.4l-2.9,2.9c-0.2-0.1-0.5-0.3-0.7-0.4
						c-0.3-0.2-0.7-0.3-0.9-0.5c-2.7-1.7-5.2-4-7.6-6.9c-1.2-1.5-1.9-2.7-2.5-3.9c0.8-0.7,1.5-1.4,2.2-2.1c0.3-0.3,0.5-0.5,0.8-0.8
						c2-1.9,2-4.5,0-6.4l-2.5-2.5c-0.3-0.3-0.6-0.6-0.9-0.9c-0.6-0.6-1.1-1.2-1.7-1.7c-0.9-0.9-2-1.4-3.1-1.4
						c-1.1,0-2.2,0.5-3.2,1.4l0,0l-3.2,3.2c-1.2,1.2-1.9,2.6-2,4.3c-0.2,2.7,0.6,5.2,1.2,6.9c1.5,4,3.8,7.8,7.1,11.8
						c4.1,4.8,9,8.7,14.6,11.4c2.1,1,5,2.2,8.2,2.4c0.2,0,0.4,0,0.6,0c2.1,0,3.9-0.8,5.4-2.3c0,0,0,0,0,0c0.5-0.6,1-1.1,1.6-1.7
						c0.4-0.4,0.8-0.8,1.2-1.2c0.9-1,1.4-2.1,1.4-3.2c0-1.1-0.5-2.3-1.4-3.2L52.8,48.3z"/>
					<path id="Path" class="st0" d="M56.1,58.1C56.1,58.1,56.1,58.1,56.1,58.1c-0.4,0.4-0.7,0.7-1.1,1.1c-0.6,0.6-1.2,1.2-1.8,1.9
						c-0.9,1-2,1.5-3.5,1.5c-0.1,0-0.3,0-0.4,0c-2.8-0.2-5.3-1.3-7.2-2.2c-5.3-2.5-9.9-6.1-13.7-10.7c-3.2-3.8-5.3-7.3-6.7-11.1
						c-0.9-2.3-1.2-4.1-1-5.8c0.1-1.1,0.5-2,1.3-2.8l3.2-3.2c0.5-0.4,0.9-0.7,1.4-0.7c0.6,0,1.1,0.4,1.4,0.6l0,0
						c0.6,0.5,1.1,1.1,1.7,1.7c0.3,0.3,0.6,0.6,0.9,0.9l2.5,2.5c1,1,1,1.9,0,2.9c-0.3,0.3-0.5,0.5-0.8,0.8c-0.8,0.8-1.5,1.5-2.3,2.3
						c0,0,0,0,0,0c-0.8,0.8-0.7,1.6-0.5,2.1l0,0.1c0.7,1.6,1.6,3.1,3,4.9l0,0c2.6,3.1,5.3,5.6,8.2,7.5c0.4,0.2,0.8,0.4,1.1,0.6
						c0.3,0.2,0.7,0.3,0.9,0.5c0,0,0.1,0,0.1,0.1c0.3,0.2,0.6,0.2,0.9,0.2c0.8,0,1.3-0.5,1.4-0.6l3.2-3.2c0.3-0.3,0.8-0.7,1.4-0.7
						c0.6,0,1,0.4,1.3,0.7l0,0l5.1,5.1C57.1,56.1,57.1,57.1,56.1,58.1z"/>
					<path id="Fill-3" class="st0" d="M41.8,31.6c2.4,0.4,4.6,1.6,6.4,3.3c1.8,1.8,2.9,4,3.3,6.4c0.1,0.6,0.6,1,1.2,1
						c0.1,0,0.1,0,0.2,0c0.7-0.1,1.1-0.8,1-1.4c-0.5-2.9-1.9-5.6-4-7.7c-2.1-2.1-4.8-3.5-7.8-4c-0.7-0.1-1.3,0.3-1.4,1
						C40.6,30.8,41.1,31.4,41.8,31.6z"/>
					<path id="Fill-4" class="st0" d="M62,40.5c-0.8-4.8-3.1-9.2-6.6-12.7c-3.5-3.5-7.9-5.8-12.8-6.6c-0.7-0.1-1.3,0.3-1.4,1
						c-0.1,0.7,0.3,1.3,1,1.4c4.3,0.7,8.3,2.8,11.4,5.9c3.1,3.1,5.2,7.1,5.9,11.4c0.1,0.6,0.6,1,1.2,1c0.1,0,0.1,0,0.2,0
						C61.6,41.8,62.1,41.1,62,40.5z"/>
				</g>
			</g>
		</g>
	</g>
</g>
</svg>
