<svg xmlns="http://www.w3.org/2000/svg" width="379" height="380" viewBox="0 0 379 380">
    <g fill="#FE4310" fill-rule="evenodd">
        <path d="M299.566 235.76c-7.761-8.078-17.121-12.399-27.043-12.399-9.839 0-19.277 4.239-27.359 12.321l-25.277 25.199c-2.082-1.121-4.16-2.16-6.16-3.199-2.883-1.442-5.602-2.801-7.922-4.242-23.68-15.039-45.2-34.641-65.84-60-10-12.641-16.719-23.282-21.602-34.079 6.563-6 12.641-12.242 18.563-18.242 2.238-2.238 4.48-4.558 6.719-6.801 16.8-16.796 16.8-38.558 0-55.359l-21.84-21.84c-2.481-2.48-5.039-5.039-7.442-7.597-4.797-4.961-9.84-10.082-15.039-14.883-7.758-7.68-17.039-11.758-26.801-11.758-9.757 0-19.199 4.078-27.199 11.758l-.16.16L17.965 62.24C7.727 72.479 1.887 84.959.605 99.44c-1.921 23.359 4.961 45.121 10.239 59.359 12.961 34.961 32.32 67.359 61.199 102.082 35.043 41.84 77.203 74.879 125.363 98.16 18.399 8.719 42.957 19.039 70.399 20.801 1.679.078 3.441.156 5.039.156 18.48 0 34-6.637 46.16-19.84.082-.16.242-.238.32-.398 4.16-5.039 8.961-9.602 14-14.481 3.442-3.281 6.961-6.718 10.403-10.32 7.918-8.238 12.078-17.84 12.078-27.68 0-9.918-4.239-19.437-12.321-27.437l-43.918-44.082zm28.637 84.238c-.078 0-.078.082 0 0-3.117 3.363-6.316 6.403-9.758 9.762-5.199 4.961-10.48 10.16-15.441 16-8.078 8.641-17.598 12.719-30.078 12.719-1.199 0-2.481 0-3.68-.078-23.762-1.52-45.84-10.801-62.402-18.719-45.278-21.922-85.039-53.043-118.078-92.481-27.282-32.883-45.52-63.281-57.602-95.922-7.437-19.918-10.16-35.437-8.961-50.078.801-9.359 4.402-17.121 11.043-23.761l27.277-27.282c3.922-3.679 8.082-5.679 12.161-5.679 5.043 0 9.121 3.043 11.679 5.601l.242.238c4.879 4.563 9.52 9.282 14.399 14.321 2.48 2.562 5.039 5.121 7.601 7.762l21.84 21.839c8.481 8.481 8.481 16.321 0 24.801-2.32 2.32-4.558 4.641-6.879 6.879-6.722 6.879-13.121 13.281-20.082 19.52-.16.16-.32.242-.398.402-6.883 6.879-5.602 13.598-4.16 18.156l.238.723c5.68 13.758 13.68 26.719 25.84 42.16l.082.078c22.078 27.199 45.359 48.402 71.039 64.641 3.281 2.082 6.641 3.761 9.84 5.359 2.879 1.442 5.601 2.801 7.922 4.242.316.16.636.399.957.559 2.722 1.359 5.281 2 7.922 2 6.64 0 10.8-4.16 12.16-5.52l27.359-27.359c2.719-2.723 7.039-6 12.078-6 4.961 0 9.043 3.117 11.524 5.84l.156.16 44.082 44.078c8.238 8.16 8.238 16.563.078 25.039zM204.844 91.119c20.961 3.52 40 13.442 55.199 28.641 15.203 15.199 25.043 34.238 28.641 55.199.882 5.281 5.441 8.961 10.64 8.961.641 0 1.199-.078 1.84-.16 5.922-.961 9.84-6.559 8.879-12.481-4.316-25.359-16.316-48.48-34.637-66.8-18.32-18.321-41.441-30.321-66.801-34.637-5.921-.961-11.441 2.957-12.48 8.797-1.039 5.84 2.801 11.519 8.719 12.48zM378.605 168.158c-7.121-41.757-26.8-79.757-57.039-110-30.242-30.238-68.242-49.918-110-57.039C205.727.08 200.203 4.08 199.164 9.92a10.853 10.853 0 0 0 8.879 12.481c37.281 6.32 71.281 24 98.32 50.96 27.043 27.04 44.641 61.04 50.961 98.321.879 5.277 5.442 8.957 10.641 8.957.64 0 1.199-.078 1.84-.16 5.84-.879 9.84-6.481 8.8-12.321z"/>
    </g>
</svg>
