<svg xmlns="http://www.w3.org/2000/svg" width="270" height="257" viewBox="0 0 270 257">
    <defs>
        <path id="a" d="M.048.319H324.68v324.68H.048z"/>
    </defs>
    <g fill="none" fill-rule="evenodd">
        <path fill="#003C4C" d="M269 0L44 77.344 112.536 91z"/>
        <path fill="#08BEB6" d="M44 77.578L113.125 91 159 65z"/>
        <path fill="#002639" d="M113 91.155L123.651 172 270 0z"/>
        <path fill="#13D5CC" d="M113 91.416L123.643 172 189 95.373l-11.282-18.286-22.351 18.56L158.607 65h-.004z"/>
        <path fill="#002639" d="M269 0L137.01 110.139 123 172z"/>
        <path fill="#08BEB6" d="M154.552 95.577l-17.597 14.706L123 172l65-76.698L176.78 77z"/>
        <path fill="#003C4C" d="M224.098 154L269 0 137 110.484z"/>
        <path fill="#08BEB6" d="M137 110.475L224 154l-47.059-77-22.297 18.687z"/>
        <path fill="#FFF" d="M0 194.83L91.018 106l4.027 5.301L0 194.83zM106.747 257l82.452-94.93 5.801 2.646L106.747 257zm-68.776-9.315l77.024-69.108-4.207-3.611-72.817 72.72z"/>
    </g>
</svg>
