<?xml version="1.0" encoding="UTF-8"?>
<svg width="99px" height="99px" viewBox="0 0 99 99" version="1.1" xmlns="http://www.w3.org/2000/svg" xmlns:xlink="http://www.w3.org/1999/xlink">
    <!-- Generator: Sketch 49.3 (51167) - http://www.bohemiancoding.com/sketch -->
    <title>boost-productivity</title>
    <desc>Created with Sketch.</desc>
    <defs>
        <circle id="path-1" cx="40.5" cy="40.5" r="40.5"></circle>
        <filter x="-16.7%" y="-16.7%" width="133.3%" height="133.3%" filterUnits="objectBoundingBox" id="filter-2">
            <feOffset dx="0" dy="0" in="SourceAlpha" result="shadowOffsetOuter1"></feOffset>
            <feGaussianBlur stdDeviation="4.5" in="shadowOffsetOuter1" result="shadowBlurOuter1"></feGaussianBlur>
            <feColorMatrix values="0 0 0 0 0   0 0 0 0 0   0 0 0 0 0  0 0 0 0.15 0" type="matrix" in="shadowBlurOuter1"></feColorMatrix>
        </filter>
    </defs>
    <g id="Page-1" stroke="none" stroke-width="1" fill="none" fill-rule="evenodd">
        <g id="Homepage" transform="translate(-388.000000, -4985.000000)">
            <g id="CTA" transform="translate(-1.000000, 4409.000000)">
                <g id="CTA-highlights" transform="translate(278.000000, 585.000000)">
                    <g id="boost-productivity" transform="translate(120.000000, 0.000000)">
                        <g id="Oval-5">
                            <use fill="black" fill-opacity="1" filter="url(#filter-2)" xlink:href="#path-1"></use>
                            <use fill="#A4B5C2" fill-rule="evenodd" xlink:href="#path-1"></use>
                        </g>
                        <g id="002-users-relation" transform="translate(17.000000, 19.000000)" fill="#FFFFFF">
                            <g>
                                <path d="M14.0434197,5.17857282 C14.0434197,8.01907282 11.7187794,10.3223107 8.85076499,10.3223107 C5.98331415,10.3223107 3.65867386,8.01907282 3.65867386,5.17857282 C3.65867386,2.33796117 5.98331415,0.034723301 8.85076499,0.034723301 C11.7187794,0.034723301 14.0434197,2.33796117 14.0434197,5.17857282 Z" id="Fill-1"></path>
                                <path d="M38.0435132,0.034723301 C40.9110767,0.034723301 43.2352662,2.33796117 43.2352662,5.17857282 C43.2352662,8.01907282 40.9110767,10.3218641 38.0435132,10.3218641 C35.1756115,10.3218641 32.8505204,8.01907282 32.8505204,5.17857282 C32.8505204,2.33796117 35.1756115,0.034723301 38.0435132,0.034723301 Z" id="Fill-2"></path>
                                <path d="M41.939554,9.78415534 C40.9176139,10.7296117 39.5493165,11.3127621 38.0430624,11.3127621 C36.53647,11.3127621 35.1689616,10.729165 34.1466835,9.78415534 C31.9329496,10.3628398 30.1718585,12.0454126 29.4955995,14.1978107 C27.5826882,13.8484563 25.5512062,13.6592087 23.4471391,13.6592087 C21.3426211,13.6592087 19.3112518,13.8484563 17.3982278,14.1978107 C16.7224197,12.0454126 14.9604269,10.3628398 12.7477074,9.78415534 C11.7248657,10.729165 10.35747,11.3123155 8.85076499,11.3123155 C7.3446235,11.3123155 5.97666427,10.729165 4.95438609,9.78415534 C2.10756115,10.5289757 0,13.0943689 0,16.1446602 L0,21.4834515 L0.0136378897,21.5658495 L0.385242206,21.6809612 C1.54401199,22.0394709 2.6468777,22.3124563 3.70184173,22.5258204 C3.21572422,23.5585874 2.95029257,24.6449466 2.95029257,25.7671456 C2.95029257,30.6147864 7.79940767,34.803801 14.7799784,36.7359126 C14.5224365,37.4362961 14.379295,38.1899369 14.379295,38.9776311 L14.379295,44.3164223 L14.3933837,44.4001602 L14.7645372,44.5152718 C18.2624868,45.5972767 21.3021583,45.9589126 23.8042038,45.9589126 C28.6904005,45.9589126 31.522235,44.578466 31.697048,44.4908204 L32.0444197,44.3164223 L32.0813885,44.3164223 L32.0813885,38.9780777 C32.0813885,38.2292379 31.9532374,37.5113252 31.7199281,36.8414223 C38.911717,34.9591068 43.9436475,30.705 43.9436475,25.7675922 C43.9436475,24.6977573 43.7050408,23.6614175 43.262542,22.6736456 C45.2696787,22.2623252 46.4008345,21.712 46.5091487,21.6574029 L46.8568585,21.4830049 L46.89394,21.4834515 L46.89394,16.1446602 C46.8942782,13.0943689 44.786717,10.5289757 41.939554,9.78415534 Z M42.5276739,25.7671456 C42.5276739,30.1407184 37.8251942,33.9089223 31.110506,35.5683835 C30.2265228,34.1343447 28.8084077,33.0566942 27.1279041,32.6179078 C26.1050624,33.5630291 24.736765,34.1461796 23.2309616,34.1461796 C21.725271,34.1461796 20.3568609,33.5630291 19.3341319,32.6179078 C17.691048,33.0479854 16.2971655,34.0867816 15.4100264,35.4732573 C8.89528537,33.7680194 4.36705516,30.0591019 4.36705516,25.7671456 C4.36705516,24.7313641 4.63564269,23.7308641 5.12694484,22.7835097 C6.69518945,23.0251214 8.13269065,23.1250485 9.42490887,23.1250485 C14.3106547,23.1250485 17.14294,21.7447136 17.3173022,21.6574029 L17.6646739,21.4825583 L17.7020935,21.4834515 L17.7020935,16.1442136 C17.7020935,15.9488252 17.6928513,15.7547767 17.6756067,15.5637427 C19.4978993,15.2383932 21.4360576,15.0617621 23.4471391,15.0617621 C25.4587842,15.0617621 27.3972806,15.2383932 29.2191223,15.5637427 C29.2024412,15.7552233 29.1927482,15.9488252 29.1927482,16.1446602 L29.1927482,21.4834515 L29.2063861,21.5667427 L29.5784412,21.6814078 C33.0754892,22.7635243 36.1156115,23.1250485 38.6167554,23.1250485 C39.8170024,23.1250485 40.8912398,23.0422039 41.834283,22.9143641 C42.2828681,23.8233107 42.5276739,24.7788155 42.5276739,25.7671456 Z" id="Fill-4"></path>
                                <path d="M28.4231655,28.0123252 C28.4231655,30.8529369 26.0985252,33.1557282 23.2309616,33.1557282 C20.3635108,33.1557282 18.0388705,30.8529369 18.0388705,28.0123252 C18.0388705,25.1718252 20.3635108,22.869034 23.2309616,22.869034 C26.0985252,22.869034 28.4231655,25.1718252 28.4231655,28.0123252 Z" id="Fill-6"></path>
                            </g>
                        </g>
                    </g>
                </g>
            </g>
        </g>
    </g>
</svg>