<?xml version="1.0" encoding="UTF-8"?>
<svg width="99px" height="99px" viewBox="0 0 99 99" version="1.1" xmlns="http://www.w3.org/2000/svg" xmlns:xlink="http://www.w3.org/1999/xlink">
    <!-- Generator: Sketch 49.3 (51167) - http://www.bohemiancoding.com/sketch -->
    <title>costs</title>
    <desc>Created with Sketch.</desc>
    <defs>
        <circle id="path-1" cx="40.5" cy="40.5" r="40.5"></circle>
        <filter x="-16.7%" y="-16.7%" width="133.3%" height="133.3%" filterUnits="objectBoundingBox" id="filter-2">
            <feOffset dx="0" dy="0" in="SourceAlpha" result="shadowOffsetOuter1"></feOffset>
            <feGaussianBlur stdDeviation="4.5" in="shadowOffsetOuter1" result="shadowBlurOuter1"></feGaussianBlur>
            <feColorMatrix values="0 0 0 0 0   0 0 0 0 0   0 0 0 0 0  0 0 0 0.15 0" type="matrix" in="shadowBlurOuter1"></feColorMatrix>
        </filter>
    </defs>
    <g id="Page-1" stroke="none" stroke-width="1" fill="none" fill-rule="evenodd">
        <g id="Homepage" transform="translate(-750.000000, -4985.000000)">
            <g id="CTA" transform="translate(-1.000000, 4409.000000)">
                <g id="CTA-highlights" transform="translate(278.000000, 585.000000)">
                    <g id="costs" transform="translate(482.000000, 0.000000)">
                        <g id="Oval-5-Copy">
                            <use fill="black" fill-opacity="1" filter="url(#filter-2)" xlink:href="#path-1"></use>
                            <use fill="#A4B5C2" fill-rule="evenodd" xlink:href="#path-1"></use>
                        </g>
                        <g id="price-tag" transform="translate(13.000000, 18.000000)" fill="#FFFFFF">
                            <g>
                                <path d="M43.7588789,23.7884063 L23.3238273,44.0603438 C23.085683,44.2971563 22.825,44.5217344 22.5531186,44.7245156 C22.8930412,44.8145156 23.2445876,44.8596563 23.6073325,44.8596563 L42.8176418,44.8596563 C45.1426675,44.8596563 47.0363402,42.9804844 47.0363402,40.674375 L47.0363402,23.6307656 C46.1294072,23.5742344 45.1990851,23.4621562 44.2351675,23.281875 C44.0878866,23.450625 43.9288402,23.6192344 43.7588789,23.7884063 Z" id="Fill-1"></path>
                                <path d="M52.4002577,10.513125 L52.2983376,10.4120156 C50.4040979,8.53326562 47.6488531,6.80076562 44.5186727,5.50715625 C43.9516624,5.27034375 43.3734536,5.05673438 42.7948196,4.86548438 L42.7948196,4.83201563 C42.7610825,2.34576563 40.7428093,0.342984375 38.2360567,0.309515625 L25.9889175,0.129375 C24.3669845,0.106875 22.8021778,0.736875 21.6571005,1.87284375 L1.23310567,22.156875 C-0.410798969,23.7884063 -0.410798969,26.4432656 1.23310567,28.0742344 L14.8186727,41.5515938 C16.4632861,43.183125 19.139433,43.183125 20.7839046,41.5515938 L41.2300129,21.268125 C41.8198454,20.683125 42.2622552,19.9970156 42.5684407,19.2434063 C44.621018,19.816875 46.6166108,20.120625 48.374768,20.1096563 C52.7291237,20.0871563 54.1694716,18.196875 54.6456186,17.071875 C55.1107088,15.946875 55.4507732,13.5957656 52.4002577,10.513125 Z M27.1002577,22.0217344 C26.6239691,22.2804844 26.1361985,22.5617344 25.6488531,22.8095156 C25.1837629,23.0457656 25.0248582,22.9890938 24.8548969,22.4942344 C24.5032088,21.504375 23.9361985,20.660625 23.153866,19.9629844 C22.9494588,19.7832656 22.7341366,19.6140938 22.4733119,19.513125 C21.5435567,19.1532656 20.7269201,19.7492344 20.8404639,20.7390938 C20.8974485,21.2346563 21.0557861,21.7070156 21.2484278,22.1679844 C21.5774356,22.9665938 21.928982,23.7659063 22.1671263,24.598125 C22.9384021,27.2529844 21.2373711,29.8632656 18.5496005,30.1220156 C17.5744845,30.2121563 16.6448711,30.009375 15.7943557,29.5254844 C15.4199871,29.3117344 15.136482,29.3342344 14.8529768,29.6496563 C14.5694716,29.9534063 14.2516624,30.2346563 13.9571005,30.526875 C13.6962758,30.785625 13.4127706,30.7971563 13.1519459,30.5384063 C12.8230799,30.2346563 12.5052706,29.9082656 12.1878866,29.5929844 C11.9155799,29.3117344 11.9382603,29.0195156 12.2107088,28.7492344 C12.4260309,28.535625 12.6414948,28.3103438 12.856817,28.0967344 C13.3331057,27.6132656 13.3331057,27.5792344 12.9476804,27.0507656 C12.4487113,26.375625 12.0063015,25.6670156 11.7344201,24.8684063 C11.5190979,24.2492344 11.5755155,24.0915938 12.1425258,23.776875 C12.5622552,23.540625 12.9814175,23.3045156 13.4127706,23.0792344 C13.9117397,22.8204844 14.0590206,22.8770156 14.228982,23.4054844 C14.5124871,24.3059063 14.9775773,25.1045156 15.5556443,25.8467344 C15.9300129,26.330625 16.3951031,26.6904844 16.9621134,26.915625 C18.0280928,27.3320156 19.0032088,26.589375 18.890232,25.464375 C18.8559278,25.0820156 18.742384,24.7107656 18.5951031,24.3509063 C18.2323582,23.4279844 17.767268,22.5392344 17.5291237,21.5603438 C17.1320747,19.9854844 17.3138015,18.5457656 18.5951031,17.4207656 C20.046933,16.1496562 21.6681572,16.0704844 23.3808119,16.8582656 C24.0834794,17.1845156 24.0834794,17.1954844 24.6278093,16.6554844 C24.8095361,16.4759063 24.9911211,16.2957656 25.1837629,16.1154844 C25.6034923,15.7217344 25.7391495,15.7217344 26.1588789,16.1154844 L26.5332474,16.486875 C27.3953866,17.3415938 27.3953866,17.3415938 26.5332474,18.2078438 C25.9207345,18.8154844 25.9207345,18.8154844 26.4313273,19.513125 C26.8283763,20.0529844 27.1345619,20.6270156 27.3727062,21.245625 C27.4971649,21.5828438 27.4291237,21.8415938 27.1002577,22.0217344 Z M51.3571005,15.7217344 C50.9711082,16.6329844 46.8547552,17.4317344 40.6065851,14.844375 C38.7693299,14.0907656 37.068299,13.1453438 35.6734536,12.1329844 C35.6280928,12.1895156 35.5715335,12.245625 35.5261727,12.3015938 C34.1652062,13.651875 31.9425258,13.651875 30.5814175,12.3015938 C29.221018,10.9520156 29.221018,8.74701563 30.5814175,7.39673437 C31.9425258,6.04715625 34.1652062,6.04715625 35.5261727,7.39673437 C36.342384,8.20701563 36.6601933,9.30951562 36.5123454,10.3554844 C37.8507732,11.3007656 39.4609407,12.1670156 41.1735954,12.875625 C41.7859665,13.1228438 42.3640335,13.348125 42.9310438,13.5392344 L42.8630026,8.656875 C42.9654897,8.70201562 43.0556443,8.73548437 43.1581314,8.78048438 C45.8342784,9.88298437 48.2385438,11.3909063 49.7922938,12.9317344 L49.859768,12.9992344 C51.3344201,14.473125 51.481701,15.4179844 51.3571005,15.7217344 Z" id="Fill-3"></path>
                            </g>
                        </g>
                    </g>
                </g>
            </g>
        </g>
    </g>
</svg>