<?xml version="1.0" encoding="UTF-8"?>
<svg width="99px" height="99px" viewBox="0 0 99 99" version="1.1" xmlns="http://www.w3.org/2000/svg" xmlns:xlink="http://www.w3.org/1999/xlink">
    <!-- Generator: Sketch 49.3 (51167) - http://www.bohemiancoding.com/sketch -->
    <title>efficiency</title>
    <desc>Created with Sketch.</desc>
    <defs>
        <circle id="path-1" cx="40.5" cy="40.5" r="40.5"></circle>
        <filter x="-16.7%" y="-16.7%" width="133.3%" height="133.3%" filterUnits="objectBoundingBox" id="filter-2">
            <feOffset dx="0" dy="0" in="SourceAlpha" result="shadowOffsetOuter1"></feOffset>
            <feGaussianBlur stdDeviation="4.5" in="shadowOffsetOuter1" result="shadowBlurOuter1"></feGaussianBlur>
            <feColorMatrix values="0 0 0 0 0   0 0 0 0 0   0 0 0 0 0  0 0 0 0.15 0" type="matrix" in="shadowBlurOuter1"></feColorMatrix>
        </filter>
    </defs>
    <g id="Page-1" stroke="none" stroke-width="1" fill="none" fill-rule="evenodd">
        <g id="Homepage" transform="translate(-1108.000000, -4985.000000)">
            <g id="CTA" transform="translate(-1.000000, 4409.000000)">
                <g id="CTA-highlights" transform="translate(278.000000, 585.000000)">
                    <g id="efficiency" transform="translate(840.000000, 0.000000)">
                        <g id="Oval-5-Copy-2">
                            <use fill="black" fill-opacity="1" filter="url(#filter-2)" xlink:href="#path-1"></use>
                            <use fill="#A4B5C2" fill-rule="evenodd" xlink:href="#path-1"></use>
                        </g>
                        <g id="002-efficiency" transform="translate(16.000000, 16.000000)" fill="#FFFFFF">
                            <g>
                                <path d="M47.7272727,18.1818182 L44.2893939,18.1818182 C44.0488636,17.5018939 43.7721591,16.8346591 43.4600379,16.1820076 L45.8918561,13.7503788 C46.7795455,12.8632576 46.7795455,11.4242424 45.8918561,10.536553 L39.463447,4.10814394 C39.0373106,3.68200758 38.4594697,3.44242424 37.8566288,3.44242424 C37.2535985,3.44242424 36.6757576,3.68200758 36.2496212,4.10814394 L33.8179924,6.53996212 C33.1653409,6.22784091 32.4981061,5.95113636 31.8181818,5.71060606 L31.8181818,2.27272727 C31.8181818,1.01723485 30.800947,0 29.5454545,0 L20.4545455,0 C19.199053,0 18.1818182,1.01723485 18.1818182,2.27272727 L18.1818182,5.71060606 C17.5018939,5.95113636 16.8346591,6.22784091 16.1827652,6.53996212 L13.7503788,4.10814394 C12.8632576,3.22045455 11.4242424,3.22045455 10.536553,4.10814394 L4.10814394,10.536553 C3.22045455,11.4242424 3.22045455,12.8632576 4.10814394,13.7503788 L6.53996212,16.1827652 C6.22784091,16.8346591 5.95113636,17.5018939 5.71060606,18.1818182 L2.27272727,18.1818182 C1.01723485,18.1818182 0,19.199053 0,20.4545455 L0,29.5454545 C0,30.800947 1.01723485,31.8181818 2.27272727,31.8181818 L5.71060606,31.8181818 C5.95113636,32.4981061 6.22784091,33.1653409 6.53996212,33.8172348 L4.10814394,36.2496212 C3.68200758,36.6757576 3.44242424,37.2535985 3.44242424,37.8566288 C3.44242424,38.4594697 3.68200758,39.0373106 4.10814394,39.463447 L10.536553,45.8918561 C11.4242424,46.7787879 12.8632576,46.7787879 13.7503788,45.8918561 L16.1827652,43.4600379 C16.8346591,43.7721591 17.5018939,44.0488636 18.1818182,44.2893939 L18.1818182,47.7272727 C18.1818182,48.9827652 19.199053,50 20.4545455,50 L29.5454545,50 C30.800947,50 31.8181818,48.9827652 31.8181818,47.7272727 L31.8181818,44.2893939 C32.4981061,44.0488636 33.1653409,43.7721591 33.8179924,43.4600379 L36.2496212,45.8918561 C37.1375,46.7787879 38.5757576,46.7795455 39.463447,45.8918561 L45.8918561,39.463447 C46.7795455,38.5757576 46.7795455,37.1367424 45.8918561,36.249053 L43.4600379,33.8172348 C43.7721591,33.1653409 44.0488636,32.4981061 44.2901515,31.8181818 L47.7272727,31.8181818 C48.9827652,31.8181818 50,30.8001894 50,29.5454545 L50,20.4545455 C50,19.199053 48.9827652,18.1818182 47.7272727,18.1818182 Z M45.4545455,27.2727273 L42.6092803,27.2727273 C41.5719697,27.2727273 40.6664773,27.9748106 40.4081439,28.9795455 C40.0390152,30.4140152 39.4664773,31.79375 38.7066288,33.0787879 C38.1791667,33.9717803 38.3227273,35.1089015 39.0566288,35.8420455 L41.0710227,37.8566288 L37.8566288,41.0704545 L35.8420455,39.0566288 C35.1089015,38.3234848 33.9725379,38.1791667 33.0795455,38.7066288 C31.79375,39.4664773 30.4140152,40.0382576 28.9787879,40.4081439 C27.9748106,40.6664773 27.2727273,41.5719697 27.2727273,42.6092803 L27.2727273,45.4545455 L22.7272727,45.4545455 L22.7272727,42.6092803 C22.7272727,41.5719697 22.0251894,40.6664773 21.0212121,40.4081439 C19.5859848,40.0390152 18.2070076,39.4664773 16.9204545,38.7066288 C16.0274621,38.1791667 14.8910985,38.3234848 14.1579545,39.0566288 L12.1433712,41.0704545 L8.92897727,37.8566288 L10.9433712,35.8420455 C11.6772727,35.1089015 11.8208333,33.9717803 11.2933712,33.0787879 C10.5335227,31.79375 9.96174242,30.4140152 9.59185606,28.9787879 C9.33352273,27.9748106 8.4280303,27.2727273 7.3907197,27.2727273 L4.54545455,27.2727273 L4.54545455,22.7272727 L7.3907197,22.7272727 C8.4280303,22.7272727 9.33352273,22.0251894 9.59185606,21.0212121 C9.96174242,19.5852273 10.5335227,18.20625 11.2933712,16.9204545 C11.8208333,16.0282197 11.6772727,14.8910985 10.9433712,14.1579545 L8.92954545,12.1433712 L12.1433712,8.92954545 L14.1579545,10.9433712 C14.8910985,11.6765152 16.0282197,11.8208333 16.9212121,11.2933712 C18.20625,10.5335227 19.5859848,9.96174242 21.0212121,9.59185606 C22.0251894,9.33352273 22.7272727,8.4280303 22.7272727,7.3907197 L22.7272727,4.54545455 L27.2727273,4.54545455 L27.2727273,7.3907197 C27.2727273,8.4280303 27.9748106,9.33352273 28.9787879,9.59185606 C30.4147727,9.96174242 31.79375,10.5335227 33.0795455,11.2933712 C33.9725379,11.8208333 35.1089015,11.6765152 35.8420455,10.9433712 L37.8566288,8.92954545 L41.0710227,12.1433712 L39.0566288,14.1579545 C38.3227273,14.8910985 38.1791667,16.0282197 38.7066288,16.9212121 C39.4664773,18.20625 40.0390152,19.5859848 40.4081439,21.0204545 C40.6664773,22.0251894 41.5719697,22.7272727 42.6092803,22.7272727 L45.4545455,22.7272727 L45.4545455,27.2727273 Z" id="Fill-1"></path>
                                <path d="M28.2410985,20.0594697 L23.0306818,25.2708333 L21.607197,23.8473485 C20.7193182,22.9602273 19.2804924,22.9602273 18.3926136,23.8473485 C17.5056818,24.7352273 17.5056818,26.174053 18.3926136,27.0619318 L21.4229167,30.0922348 C21.8668561,30.5359848 22.4482955,30.757197 23.0306818,30.757197 C23.6121212,30.757197 24.1935606,30.5359848 24.6375,30.0922348 L31.4556818,23.274053 C32.342803,22.3861742 32.342803,20.9473485 31.4556818,20.0594697 C30.567803,19.1717803 29.1289773,19.1717803 28.2410985,20.0594697 Z" id="Fill-4"></path>
                            </g>
                        </g>
                    </g>
                </g>
            </g>
        </g>
    </g>
</svg>