<svg xmlns="http://www.w3.org/2000/svg" width="30" height="24" viewBox="0 0 30 24">
    <path fill="#40B3DF" fill-rule="evenodd" d="M13.92 17.36c0 1.6-.587 2.973-1.76 4.12-1.173 1.147-2.667 1.72-4.48 1.72-2.08 0-3.76-.733-5.04-2.2C1.36 19.533.72 17.707.72 15.52c0-4.8 1.28-8.387 3.84-10.76C7.12 2.387 9.973 1.04 13.12.72V5.6c-1.653.267-3.147 1-4.48 2.2-1.333 1.2-2.027 2.68-2.08 4.44.427-.267.987-.4 1.68-.4 1.76 0 3.147.493 4.16 1.48 1.013.987 1.52 2.333 1.52 4.04zm15.76 0c0 1.6-.587 2.973-1.76 4.12-1.173 1.147-2.667 1.72-4.48 1.72-2.08 0-3.76-.733-5.04-2.2-1.28-1.467-1.92-3.293-1.92-5.48 0-4.8 1.28-8.387 3.84-10.76 2.56-2.373 5.413-3.72 8.56-4.04V5.6c-1.653.267-3.147 1-4.48 2.2-1.333 1.2-2.027 2.68-2.08 4.44.427-.267.987-.4 1.68-.4 1.76 0 3.147.493 4.16 1.48 1.013.987 1.52 2.333 1.52 4.04z"/>
</svg>
