<?xml version="1.0" encoding="UTF-8"?>
<svg width="36px" height="28px" viewBox="0 0 36 28" version="1.1" xmlns="http://www.w3.org/2000/svg" xmlns:xlink="http://www.w3.org/1999/xlink">
    <!-- Generator: Sketch 49.3 (51167) - http://www.bohemiancoding.com/sketch -->
    <title>support-icon</title>
    <desc>Created with Sketch.</desc>
    <defs></defs>
    <g id="Page-1" stroke="none" stroke-width="1" fill="none" fill-rule="evenodd">
        <g id="WhatWeDo-DataCentre-Modernisation" transform="translate(-1014.000000, -4392.000000)" fill="#FFFFFF">
            <g id="Migration" transform="translate(-1.000000, 3456.000000)">
                <g id="Group-4" transform="translate(524.000000, 917.000000)">
                    <g id="support-icon" transform="translate(491.000000, 19.000000)">
                        <g id="Group-5">
                            <path d="M33.7876744,12.9714851 C32.3589767,5.62384158 25.7190698,0.113386139 17.9863256,0.113386139 C10.2541395,0.113386139 3.61423256,5.62384158 2.18511628,12.9714851 C0.924418605,13.3055446 0,14.3906139 0,15.810297 L0,16.060495 C0,17.6469307 1.34469767,18.9827525 2.94167442,18.9827525 L4.62265116,18.9827525 C5.1267907,18.9827525 5.46306977,18.6492475 5.46306977,18.148297 L5.46306977,13.7230495 C5.46306977,13.222099 5.1267907,12.8880396 4.62265116,12.8880396 L3.95051163,12.8880396 C5.3792093,6.54215842 11.2625581,1.86657426 17.9863256,1.86657426 C24.7107907,1.86657426 30.5941395,6.54271287 32.0226977,12.8880396 L31.3501395,12.8880396 C30.8458605,12.8880396 30.5101395,13.222099 30.5101395,13.7230495 L30.5101395,18.2317426 C30.5101395,18.7325545 30.8458605,19.0666139 31.3501395,19.0666139 L32.1066977,19.0666139 L31.8548372,19.8176238 C31.1822791,21.6548119 29.4173023,22.9071881 27.4000465,22.9071881 L27.1477674,22.9071881 C28.6607442,20.8199406 29.5851628,18.3151881 29.5851628,15.6429901 C29.5851628,9.3809703 24.3745116,4.2880198 17.9863256,4.2880198 C11.5988372,4.2880198 6.38748837,9.3809703 6.38748837,15.6429901 C6.38748837,22.1557624 11.7666977,27.9168317 17.9863256,27.9168317 C20.928,27.9168317 23.6179535,26.6644554 25.7190698,24.5770693 L27.4000465,24.5770693 C30.0894419,24.5770693 32.5268372,22.9071881 33.3673953,20.3185743 L33.872093,18.8993069 C35.0483721,18.5652475 35.9733488,17.3963168 35.9733488,16.143802 L35.9733488,15.8937426 C35.9733488,14.3906139 35.0483721,13.3055446 33.7876744,12.9714851 Z M3.78209302,17.3128713 L2.94167442,17.3128713 C2.26967442,17.3128713 1.68097674,16.7286139 1.68097674,16.060495 L1.68097674,15.810297 C1.68097674,15.0587327 2.26967442,14.5579208 2.94167442,14.5579208 L3.78209302,14.5579208 L3.78209302,17.3128713 Z M25.0465116,22.8238812 L20.8441395,22.8238812 L20.8441395,22.3225149 L19.1631628,22.3225149 L19.1631628,24.9945743 L20.8441395,24.9945743 L20.8441395,24.5770693 L23.1132558,24.5770693 C21.6006977,25.5788317 19.8357209,26.1636436 17.9863256,26.1636436 C12.6916744,26.1636436 8.06846512,21.2374455 8.06846512,15.5596832 C8.06846512,10.2159802 12.5232558,5.8740396 17.9863256,5.8740396 C23.4495349,5.8740396 27.904186,10.2159802 27.904186,15.5596832 C27.904186,18.3151881 26.811907,20.9032475 25.0465116,22.8238812 Z M34.2923721,16.060495 C34.2923721,16.7286139 33.7036744,17.3128713 33.0316744,17.3128713 L32.1911163,17.3128713 L32.1911163,14.5579208 L33.0316744,14.5579208 C33.7036744,14.5579208 34.2923721,15.1421782 34.2923721,15.810297 L34.2923721,16.060495 Z" id="Fill-1"></path>
                        </g>
                    </g>
                </g>
            </g>
        </g>
    </g>
</svg>